<?xml version='1.0' encoding='utf-8'?>
<svg xmlns="http://www.w3.org/2000/svg" id="_レイヤー_1" data-name="レイヤー_1" version="1.1" viewBox="0 0 641.66 595.28">
  
  <defs>
    <style>
      .st0 {
        fill: #ccc;
        stroke-miterlimit: 10;
      }

      .st0, .st1, .st2, .st3, .st4, .st5 {
        stroke: #040000;
      }

      .st1 {
        fill: none;
        stroke-width: 3px;
      }

      .st1, .st2, .st3, .st4, .st5 {
        stroke-linejoin: round;
      }

      .st2, .st3 {
        fill: #fff;
      }

      .st3 {
        stroke-width: 1px;
      }

      .st4 {
        fill: #040000;
      }

      .st5 {
        fill: #999899;
      }
    
      .map-overlay {
        pointer-events: none;
      }
      .supply-marker {
        fill: none;
        stroke: #231815;
        stroke-width: 1.1;
      }
      .supply-marker-home {
        stroke-width: 1.6;
      }

      .swiss-impassable {
        cursor: not-allowed;
      }
</style>
  </defs>
  <g id="_描画用:非プロヴィンス" data-name="描画用:非プロヴィンス">
    <polygon class="st4 swiss-impassable swiss-impassable" points="247.92 396.95 247.92 383.83 223.51 383.83 199.8 407.54 258.51 407.54 247.92 396.95" id="SWI" data-province="SWI" data-area-type="Land" data-name="スイス" data-impassable="true" />
    <polygon class="st5" points="431.2 495.34 431.2 507.28 443.98 507.28 468.4 482.86 456.87 482.86 444.4 495.34 431.2 495.34" />
    <polygon class="st5" points="288.76 243.22 296.48 243.22 296.48 273.16 271.14 273.16 278.52 265.78 288.76 265.78 288.76 243.22" />
    <polygon class="st5" points="255.83 276.63 250.92 281.53 278.68 281.53 274.26 276.63 255.83 276.63" />
  </g>
  <g id="_内陸" data-name="内陸">
    <polygon id="MOS" data-name="モスクワ" class="st2" points="641.38 136.43 603.94 173.87 531.23 173.87 469.43 235.68 432.36 235.68 432.36 271.74 395.06 309.04 407.33 321.31 444.06 321.31 455.95 309.41 592.36 309.41 641.66 358.71 641.38 136.43" data-province="MOS" data-area-type="Land" />
    <polygon id="UKR" data-name="ウクライナ" class="st2" points="455.95 309.41 444.06 321.31 407.33 321.31 407.33 357.94 444.23 394.84 493.07 346.01 493.07 309.41 455.95 309.41" data-province="UKR" data-area-type="Land" />
    <polygon id="GAL" data-name="ガリシア" class="st2" points="407.33 357.94 407.33 344.25 356.61 344.25 331.07 369.8 393.97 369.8 419.17 394.99 431.77 382.39 407.33 357.94" data-province="GAL" data-area-type="Land" />
    <polygon id="SER" data-name="セルビア" class="st2" points="370.5 495.34 370.5 482.12 346.37 457.99 346.37 431.31 380.89 431.31 395.21 445.63 395.21 495.34 370.5 495.34" data-province="SER" data-area-type="Land" />
    <polygon id="BUD" data-name="ブダペスト" class="st2" points="393.97 369.8 362.24 369.8 323.55 408.49 346.37 431.31 406.39 431.31 430.94 406.76 393.97 369.8" data-province="BUD" data-area-type="Land" />
    <polygon id="VIE" data-name="ウィーン" class="st2" points="321.56 369.8 308.31 383.05 308.31 408.42 323.55 408.49 362.24 369.8 321.56 369.8" data-province="VIE" data-area-type="Land" />
    <polygon id="BUR" data-name="ブルゴーニュ" class="st2" points="210.07 346.19 198.18 358.08 198.18 370.89 173.01 396.06 161.37 396.06 173.08 407.77 173.08 420.92 186.46 407.54 199.8 407.54 223.51 383.83 223.51 346.19 210.07 346.19" data-province="BUR" data-area-type="Land" />
    <polygon id="PAR" data-name="パリ" class="st2" points="161.31 345.38 161.31 383.83 149.15 383.83 161.37 396.06 173.01 396.06 198.18 370.89 198.18 358.08 185.48 345.38 161.31 345.38" data-province="PAR" data-area-type="Land" />
    <polygon id="RUH" data-name="ルール" class="st2" points="223.51 333.95 235.46 321.99 259.11 345.64 247.89 345.64 223.51 370.49 223.51 333.95" data-province="RUH" data-area-type="Land" />
    <polygon id="BOH" data-name="ボヘミア" class="st2" points="308.31 383.05 284.18 358.92 284.18 346.17 333.42 346.17 344.06 356.81 331.07 369.8 321.56 369.8 308.31 383.05" data-province="BOH" data-area-type="Land" />
    <polygon id="MUN" data-name="ミュンヘン" class="st2" points="284.18 346.17 284.18 358.92 296.74 371.48 284.38 383.83 223.51 383.83 223.51 370.49 247.89 345.64 259.11 345.64 281.5 323.25 296.74 323.25 296.74 346.17 284.18 346.17" data-province="MUN" data-area-type="Land" />
    <polygon id="WAR" data-name="ワルシャワ" class="st2" points="333.55 321.19 346.37 308.38 370.72 308.38 382.56 296.54 407.33 321.31 407.33 344.25 356.61 344.25 333.55 321.19" data-province="WAR" data-area-type="Land" />
    <polygon id="SIL" data-name="シレジア" class="st2" points="321.94 321.19 310.37 309.62 296.74 323.25 296.74 346.17 333.42 346.17 344.06 356.81 356.61 344.25 333.55 321.19 321.94 321.19" data-province="SIL" data-area-type="Land" />
    <polygon id="TYR" data-name="チロル" class="st2" points="284.38 383.83 296.74 371.48 308.31 383.05 308.31 408.42 283.46 408.42 271.43 420.46 247.92 396.95 247.92 383.83 284.38 383.83" data-province="TYR" data-area-type="Land" />
  </g>
  <g id="_沿岸" data-name="沿岸">
    <polygon id="NWY" data-name="ノルウェー" class="st2" points="407.67 62.62 420.19 50.1 420.19 37.91 382.85 37.91 246.46 174.31 246.46 210.43 259.53 223.5 272.6 223.5 284.84 211.26 296.48 222.9 296.48 212.1 309.66 198.91 309.18 136.35 382.91 62.62 407.67 62.62" data-province="NWY" data-area-type="Coastal" />
    <polygon id="STP" data-name="サンクトペテルブルグ" class="st2" points="430.85 198.43 430.85 137.16 419.67 125.97 419.67 100.18 407.67 88.19 407.67 62.62 420.19 50.1 420.19 37.91 445.11 37.91 480.28 73.08 480.28 87.82 446.06 87.82 446.06 121.85 457.28 121.85 579.13 0 641.38 0 641.38 136.43 603.94 173.87 531.23 173.87 469.43 235.68 432.36 235.68 419.64 222.96 408.26 222.96 395.69 210.33 418.95 210.33 430.85 198.43" data-province="STP" data-area-type="Coastal" />
    <polygon id="SWE" data-name="スウェーデン" class="st2" points="296.48 273.16 296.48 222.9 296.48 212.1 309.66 198.91 309.18 136.35 370.72 74.81 382.91 87.01 382.91 114.01 347.81 149.12 347.81 210.55 332.72 225.64 332.72 248.21 307.61 273.32 296.48 273.16" data-province="SWE" data-area-type="Coastal" />
    <polygon id="FIN" data-name="フィンランド" class="st2" points="382.91 114.01 393.55 124.65 369.79 148.41 369.79 184.29 383.92 198.43 430.85 198.43 430.85 137.16 419.67 125.97 419.67 100.18 407.67 88.19 407.67 62.62 382.91 62.62 370.72 74.81 382.91 87.01 382.91 114.01" data-province="FIN" data-area-type="Coastal" />
    <polygon id="BRE" data-name="ブレスト" class="st2" points="99.61 333.66 136.61 370.66 136.61 383.83 161.31 383.83 161.31 333.66 99.61 333.66" data-province="BRE" data-area-type="Coastal" />
    <polygon id="DEN" data-name="デンマーク" class="st2" points="259.29 273.16 259.29 237.04 282.58 237.04 288.76 243.22 288.76 265.8 278.54 265.8 271.14 273.2 259.29 273.16" data-province="DEN" data-area-type="Coastal" />
    <polygon id="TUN" data-name="チュニス" class="st2" points="210.85 543.22 210.85 595.28 247.41 595.28 247.35 555.99 234.58 543.22 210.85 543.22" data-province="TUN" data-area-type="Coastal" />
    <polygon id="NAF" data-name="北アフリカ" class="st2" points="210.85 543.22 50.54 543.22 37.59 530.27 .02 567.84 .02 595.28 210.85 595.28 210.85 543.22" data-province="NAF" data-area-type="Coastal" />
    <polygon id="SPA" data-name="スペイン" class="st2" points="124.52 417.84 38.3 417.84 38.3 432.88 50.38 432.88 63.22 445.72 38.49 470.44 38.49 481.61 25.47 494.63 37.59 506.75 37.59 519.34 99.61 519.34 162.82 456.13 124.52 417.84" data-province="SPA" data-area-type="Coastal" />
    <polygon id="POR" data-name="ポルトガル" class="st2" points="25.47 494.63 38.49 481.61 38.49 470.44 63.22 445.72 50.38 432.88 38.3 432.88 38.3 444.73 14.06 468.96 14.06 494.63 25.47 494.63" data-province="POR" data-area-type="Coastal" />
    <polygon id="LVN" data-name="リヴォニア" class="st2" points="432.36 235.68 432.36 271.74 395.06 309.04 382.56 296.54 382.56 284.08 370.21 271.74 370.21 235.81 395.69 210.33 408.26 222.96 419.64 222.96 432.36 235.68" data-province="LVN" data-area-type="Coastal" />
    <polygon id="SYR" data-name="シリア" class="st2" points="641.38 595.28 555.43 595.28 555.43 542.69 590.78 507.34 641.38 507.34 641.38 595.28" data-province="SYR" data-area-type="Coastal" />
    <polygon id="ARM" data-name="アルメニア" class="st2" points="628.34 468.51 603.73 443.89 590.78 456.84 590.78 507.34 641.38 507.34 641.38 468.51 628.34 468.51" data-province="ARM" data-area-type="Coastal" />
    <polygon id="SEV" data-name="セヴァストポリ" class="st2" points="641.38 358.43 592.36 309.41 493.07 309.41 493.07 346.01 444.23 394.84 444.23 419.73 456.87 432.37 493.53 395.72 518.06 420.25 530.66 407.66 517.82 394.82 542.54 370.11 542.54 408.61 566.54 432.61 592.44 432.61 628.34 468.51 641.38 468.51 641.38 358.43" data-province="SEV" data-area-type="Coastal" />
    <polygon id="SMY" data-name="スミルナ" class="st2" points="590.78 507.34 542.06 556.05 454.97 556.05 442.97 544.05 442.97 530.03 431.33 518.39 531.13 518.39 556.16 493.35 590.78 493.35 590.78 507.34" data-province="SMY" data-area-type="Coastal" />
    <polygon id="ANK" data-name="アンカラ" class="st2" points="531.13 518.39 556.16 493.35 590.78 493.35 590.78 456.84 504.04 456.84 478.02 482.86 478.02 518.39 531.13 518.39" data-province="ANK" data-area-type="Coastal" />
    <polygon id="HOL" data-name="オランダ" class="st2" points="223.51 333.95 235.46 321.99 235.46 285.33 221.75 285.33 198.32 308.76 223.51 333.95" data-province="HOL" data-area-type="Coastal" />
    <polygon id="GRE" data-name="ギリシャ" class="st2" points="370.5 505.07 357.36 518.2 381.9 542.75 381.9 567.34 406.85 542.39 395.69 531.22 395.69 507.93 408.28 495.34 370.5 495.34 370.5 505.07" data-province="GRE" data-area-type="Coastal" />
    <polygon id="RUM" data-name="ルーマニア" class="st2" points="444.23 419.73 444.23 394.84 431.77 382.39 419.17 394.99 430.94 406.76 406.39 431.31 380.89 431.31 395.21 445.63 456.87 445.63 456.87 432.37 444.23 419.73" data-province="RUM" data-area-type="Coastal" />
    <polygon id="BUL" data-name="ブルガリア" class="st2" points="395.21 495.34 395.21 445.63 456.87 445.63 456.87 470.08 444.23 470.08 431.2 483.11 431.2 495.34 395.21 495.34" data-province="BUL" data-area-type="Coastal" />
    <path id="CON" data-name="コンスタンティノープル" class="st2" d="M478.02,482.86v35.52h-46.69v-11.11h12.65l24.42-24.42h9.62ZM444.4,495.34l12.48-12.48v-12.79h-12.64l-13.03,13.03v12.23h13.2-.01Z" data-province="CON" data-area-type="Coastal" />
    <polygon id="VEN" data-name="ヴェニス" class="st2" points="248.6 431.66 259.8 420.46 271.43 420.46 283.46 408.42 296.6 408.42 296.6 432.84 284.36 432.84 284.36 446.75 296.6 458.98 286.26 469.32 248.6 431.66" data-province="VEN" data-area-type="Coastal" />
    <polygon id="APU" data-name="アビュリア" class="st2" points="296.6 458.98 286.26 469.32 334.14 517.2 334.14 496.53 296.6 458.98" data-province="APU" data-area-type="Coastal" />
    <polygon id="NAP" data-name="ナポリ" class="st2" points="334.14 517.2 308.6 542.75 295.77 529.91 308.24 517.44 284.84 494.03 297.9 480.96 334.14 517.2" data-province="NAP" data-area-type="Coastal" />
    <rect id="TUS" data-name="トスカーナ" class="st3" x="245.01" y="433.14" width="18.48" height="34.49" transform="translate(-244 311.7) rotate(-45)" data-province="TUS" data-area-type="Coastal" />
    <rect id="ROM" data-name="ローマ" class="st3" x="269.67" y="457.41" width="18.48" height="35.25" transform="translate(-254.21 336.35) rotate(-45)" data-province="ROM" data-area-type="Coastal" />
    <polygon id="TRI" data-name="トリエステ" class="st2" points="296.6 408.42 296.6 432.84 346.14 482.39 358.46 470.08 346.37 457.99 346.37 431.31 323.55 408.49 296.6 408.42" data-province="TRI" data-area-type="Coastal" />
    <polygon id="ALB" data-name="アルバニア" class="st2" points="370.5 482.12 370.5 505.07 357.36 518.2 346.14 506.98 346.14 482.39 358.46 470.08 370.5 482.12" data-province="ALB" data-area-type="Coastal" />
    <polygon id="BEL" data-name="ベルギー" class="st2" points="223.51 333.95 198.32 308.76 173.41 333.66 197.54 333.66 210.07 346.19 223.51 346.19 223.51 333.95" data-province="BEL" data-area-type="Coastal" />
    <polygon id="GAS" data-name="ガスコーニュ" class="st2" points="150.34 443.66 124.52 417.84 136.61 405.76 136.61 383.83 149.15 383.83 173.08 407.77 173.08 420.92 150.34 443.66" data-province="GAS" data-area-type="Coastal" />
    <polygon id="PIC" data-name="ピカルディ" class="st2" points="161.31 333.66 197.54 333.66 210.07 346.19 198.18 358.08 185.48 345.38 161.31 345.38 161.31 333.66" data-province="PIC" data-area-type="Coastal" />
    <polygon id="BER" data-name="ベルリン" class="st2" points="296.74 323.25 310.37 309.62 310.37 284.66 281.5 284.66 281.5 323.25 296.74 323.25" data-province="BER" data-area-type="Coastal" />
    <polygon id="PRU" data-name="プロシア" class="st2" points="370.21 271.74 357.29 284.66 310.37 284.66 310.37 309.62 321.94 321.19 333.55 321.19 346.37 308.38 370.72 308.38 382.56 296.54 382.56 284.08 370.21 271.74" data-province="PRU" data-area-type="Coastal" />
    <polygon id="PIE" data-name="ピエモント" class="st2" points="210.89 444.73 235.53 444.73 259.8 420.46 271.43 420.46 258.51 407.54 210.89 407.54 210.89 444.73" data-province="PIE" data-area-type="Coastal" />
    <polygon id="MAR" data-name="マルセイユ" class="st2" points="210.89 407.54 186.46 407.54 150.34 443.66 162.82 456.13 174.22 444.73 210.89 444.73 210.89 407.54" data-province="MAR" data-area-type="Coastal" />
    <path id="KIE" data-name="キール" class="st2" d="M255.83,276.63l3.47-3.47h11.85l3.12,3.47h-18.44ZM278.68,281.53h-27.76l-3.8,3.8h-11.66v36.66l23.65,23.65,22.39-22.39v-38.59l-2.82-3.13Z" data-province="KIE" data-area-type="Coastal" />
    <polygon id="YOR" data-name="ヨークシャー" class="st2" points="173.98 246.91 173.98 259.7 186.46 272.17 186.46 284.61 161.53 284.61 149.45 272.53 161.3 260.68 161.3 246.91 173.98 246.91" data-province="YOR" data-area-type="Coastal" />
    <polygon id="EDI" data-name="エディンバラ" class="st2" points="173.98 246.91 173.98 223.02 186.26 210.75 173.27 210.75 162.95 210.75 149.2 224.49 161.3 236.59 161.3 246.91 173.98 246.91" data-province="EDI" data-area-type="Coastal" />
    <polygon id="LVP" data-name="リヴァプール" class="st2" points="161.3 260.68 149.45 272.53 124.8 272.53 137.23 260.09 137.23 224.49 149.2 224.49 161.3 236.59 161.3 260.68" data-province="LVP" data-area-type="Coastal" />
    <polygon id="LON" data-name="ロンドン" class="st2" points="186.46 296.61 173.93 309.13 149.63 309.13 149.63 296.52 161.53 284.61 186.46 284.61 186.46 296.61" data-province="LON" data-area-type="Coastal" />
    <polygon id="WAL" data-name="ウェールズ" class="st2" points="112.44 309.13 124.8 296.77 124.8 272.53 149.45 272.53 161.53 284.61 149.63 296.52 149.63 309.13 112.44 309.13" data-province="WAL" data-area-type="Coastal" />
    <polygon id="CLY" data-name="クライド" class="st2" points="137.23 209.4 161.07 185.56 173.27 185.56 173.27 210.75 162.95 210.75 149.2 224.49 137.23 224.49 137.23 209.4" data-province="CLY" data-area-type="Coastal" />
  </g>
  <g id="_海" data-name="海">
    <polygon id="EAS" data-name="東地中海" class="st0" points="555.43 595.28 555.43 542.69 542.06 556.05 454.97 556.05 431.46 579.57 431.46 595.28 555.43 595.28" data-province="EAS" data-area-type="Sea" />
    <polygon id="ADR" data-name="アドリア湾" class="st0" points="346.14 506.98 346.14 482.39 296.6 432.84 284.36 432.84 284.36 446.75 334.14 496.53 334.14 506.98 346.14 506.98" data-province="ADR" data-area-type="Sea" />
    <polygon id="BLA" data-name="黒海" class="st0" points="456.87 482.86 456.87 432.37 493.53 395.72 518.06 420.25 530.66 407.66 517.82 394.82 542.54 370.11 542.54 408.61 566.54 432.61 592.44 432.61 603.73 443.89 590.78 456.84 504.04 456.84 478.02 482.86 456.87 482.86" data-province="BLA" data-area-type="Sea" />
    <polygon id="AEG" data-name="エーゲ海" class="st0" points="394.13 579.57 381.9 567.34 406.85 542.39 395.69 531.22 395.69 507.93 408.28 495.34 431.33 495.34 431.33 518.39 442.97 530.03 442.97 544.05 454.97 556.05 431.46 579.57 394.13 579.57" data-province="AEG" data-area-type="Sea" />
    <polygon id="ION" data-name="イオニア海" class="st0" points="247.41 595.28 431.46 595.28 431.46 579.57 394.13 579.57 381.9 567.34 381.9 542.75 346.14 506.98 334.14 506.98 334.14 517.2 308.6 542.75 260.6 542.75 247.35 555.99 247.41 595.28" data-province="ION" data-area-type="Sea" />
    <polygon id="BOT" data-name="ボスニア湾" class="st0" points="332.72 225.64 347.81 210.55 347.81 149.12 382.91 114.01 393.55 124.65 369.79 148.41 369.79 184.29 383.92 198.43 430.85 198.43 418.95 210.33 395.69 210.33 370.21 235.81 332.72 235.81 332.72 225.64" data-province="BOT" data-area-type="Sea" />
    <polygon id="TYS" data-name="ティレニア海" class="st0" points="234.58 543.22 234.58 469.91 247.65 456.84 308.24 517.44 295.77 529.91 308.66 542.8 260.6 542.8 247.38 556.02 234.58 543.22" data-province="TYS" data-area-type="Sea" />
    <polygon id="LYO" data-name="リヨン海" class="st0" points="174.22 444.73 235.53 444.73 247.65 456.84 234.58 469.91 234.58 495.52 123.43 495.52 174.22 444.73" data-province="LYO" data-area-type="Sea" />
    <polygon id="WES" data-name="西地中海" class="st0" points="99.61 519.34 123.43 495.52 234.58 495.52 234.58 543.22 50.54 543.22 37.59 530.27 37.59 519.34 99.61 519.34" data-province="WES" data-area-type="Sea" />
    <polygon id="MAO" data-name="中大西洋" class="st0" points=".02 567.84 37.59 530.27 37.59 506.75 25.47 494.63 14.06 494.63 14.06 468.96 38.3 444.73 38.3 417.84 124.52 417.84 136.61 405.76 136.61 370.66 99.61 333.66 99.61 321.96 75.14 297.5 .02 297.5 .02 567.84" data-province="MAO" data-area-type="Sea" />
    <polygon id="IRI" data-name="アイリッシュ海" class="st0" points="125.12 247.51 75.14 297.5 99.61 321.96 112.44 309.13 124.8 296.77 124.8 272.53 137.23 260.09 137.23 247.51 125.12 247.51" data-province="IRI" data-area-type="Sea" />
    <polygon id="NAO" data-name="北大西洋" class="st0" points=".02 297.5 75.14 297.5 125.12 247.51 137.23 247.51 137.23 209.4 161.07 185.56 161.07 0 0 0 .02 297.5" data-province="NAO" data-area-type="Sea" />
    <polygon id="ENG" data-name="イギリス海峡" class="st0" points="173.41 333.66 99.61 333.66 99.61 321.96 112.44 309.13 173.93 309.13 185.87 321.07 173.41 333.66" data-province="ENG" data-area-type="Sea" />
    <polygon id="NTH" data-name="北海" class="st0" points="246.34 174.31 246.34 210.55 259.29 223.5 259.29 247.59 235.97 247.59 221.75 261.82 221.75 285.33 185.94 321.14 173.93 309.13 186.02 297.05 186.02 272.17 173.76 259.92 173.76 223.02 222.43 174.35 246.34 174.31" data-province="NTH" data-area-type="Sea" />
    <polygon id="HEL" data-name="ヘルゴランド湾" class="st0" points="247.12 285.33 259.29 273.16 259.29 247.59 235.97 247.59 221.75 261.82 221.75 285.33 247.12 285.33" data-province="HEL" data-area-type="Sea" />
    <polygon id="NWG" data-name="ノルウェー海" class="st0" points="161.07 0 161.07 185.56 173.27 185.56 173.27 210.75 186.46 210.75 222.64 174.56 246.34 174.56 382.92 37.98 382.92 0 161.07 0" data-province="NWG" data-area-type="Sea" />
    <polygon id="BAR" data-name="バレンツ海" class="st0" points="446.06 87.82 446.06 121.85 457.28 121.85 579.13 0 382.92 0 382.92 37.98 445.11 37.98 480.25 73.12 480.25 87.82 446.06 87.82" data-province="BAR" data-area-type="Sea" />
    <polygon id="SKA" data-name="スカゲラク" class="st0" points="296.48 222.9 284.84 211.26 272.6 223.5 259.29 223.5 259.29 237.04 282.58 237.04 288.76 243.22 296.48 243.22 296.48 222.9" data-province="SKA" data-area-type="Sea" />
    <polygon id="BAL" data-name="バルト海" class="st0" points="271.15 273.18 307.61 273.18 332.65 248.14 332.65 235.81 370.21 235.81 370.21 271.74 357.29 284.66 281.5 284.66 271.15 273.18" data-province="BAL" data-area-type="Sea" />
  </g>
  <g id="_海岸線" data-name="海岸線">
    <polygon class="st1" points="173.93 309.13 186.46 296.61 186.46 284.61 186.46 272.17 173.98 259.7 173.98 246.91 173.98 223.02 186.26 210.75 173.27 210.75 173.27 185.56 161.07 185.56 137.23 209.4 137.23 224.49 137.23 260.09 124.8 272.53 124.8 296.77 112.44 309.13 149.63 309.13 173.93 309.13" />
    <polygon class="st1" points="288.76 265.8 288.76 243.22 282.58 237.04 259.29 237.04 259.29 273.16 255.83 276.63 274.26 276.63 271.15 273.18 278.54 265.8 288.76 265.8" />
    <polyline class="st1" points="247.41 595.28 247.35 555.99 234.58 543.22 50.54 543.22 37.59 530.27 .02 567.84" />
    <polyline class="st1" points="579.13 0 457.28 121.85 446.06 121.85 446.06 87.82 480.28 87.82 480.28 73.08 445.11 37.91 420.19 37.91 382.85 37.91 246.46 174.31 246.46 210.43 259.53 223.5 272.6 223.5 284.84 211.26 296.48 222.9 296.48 273.16 307.61 273.32 332.72 248.21 332.72 225.64 347.81 210.55 347.81 149.12 382.91 114.01 393.55 124.65 369.79 148.41 369.79 184.29 383.92 198.43 430.85 198.43 418.95 210.33 395.69 210.33 370.21 235.81 370.21 271.74 357.29 284.66 310.37 284.66 281.5 284.66 278.68 281.53 250.92 281.53 247.12 285.33 235.46 285.33 221.75 285.33 198.32 308.76 173.41 333.66 161.31 333.66 99.61 333.66 136.61 370.66 136.61 383.83 136.61 405.76 124.52 417.84 38.3 417.84 38.3 432.88 38.3 444.73 14.06 468.96 14.06 494.63 25.47 494.63 37.59 506.75 37.59 519.34 99.61 519.34 162.82 456.13 174.22 444.73 235.53 444.73 308.24 517.44 295.77 529.91 308.6 542.75 334.14 517.2 334.14 496.53 284.36 446.75 284.36 432.84 296.6 432.84 346.14 482.39 346.14 506.98 381.9 542.75 381.9 567.34 406.85 542.39 395.69 531.22 395.69 507.93 408.28 495.34 444.4 495.34 456.87 482.86 456.87 432.37 493.53 395.72 518.06 420.25 530.66 407.66 517.82 394.82 542.54 370.11 542.54 408.61 566.54 432.61 592.44 432.61 603.73 443.89 590.78 456.84 504.04 456.84 478.02 482.86 468.4 482.86 443.98 507.28 431.33 507.28 431.33 518.39 442.97 530.03 442.97 544.05 454.97 556.05 542.06 556.05 555.43 542.69 555.43 595.28" />
  </g>
<g id="supply-centers" class="map-overlay" aria-hidden="true"><circle data-supply="ANK" cx="530.36" cy="494.78" r="4" class="supply-marker supply-marker-home" /><circle data-supply="BEL" cx="212.59" cy="339.32" r="4" class="supply-marker" /><circle data-supply="BER" cx="295.04" cy="312.61" r="4" class="supply-marker supply-marker-home" /><circle data-supply="BRE" cx="140.18" cy="358.21" r="4" class="supply-marker supply-marker-home" /><circle data-supply="BUD" cx="377.37" cy="413.40" r="4" class="supply-marker supply-marker-home" /><circle data-supply="BUL" cx="411.70" cy="457.45" r="4" class="supply-marker" /><circle data-supply="CON" cx="456.85" cy="508.49" r="4" class="supply-marker supply-marker-home" /><circle data-supply="DEN" cx="272.94" cy="255.83" r="4" class="supply-marker" /><circle data-supply="EDI" cx="166.57" cy="229.38" r="4" class="supply-marker supply-marker-home" /><circle data-supply="GRE" cx="384.34" cy="513.60" r="4" class="supply-marker" /><circle data-supply="HOL" cx="221.39" cy="317.91" r="4" class="supply-marker" /><circle data-supply="KIE" cx="258.77" cy="320.50" r="4" class="supply-marker supply-marker-home" /><circle data-supply="LON" cx="164.92" cy="300.81" r="4" class="supply-marker supply-marker-home" /><circle data-supply="LVP" cx="147.06" cy="252.97" r="4" class="supply-marker supply-marker-home" /><circle data-supply="MAR" cx="186.17" cy="433.29" r="4" class="supply-marker supply-marker-home" /><circle data-supply="MOS" cx="548.31" cy="262.69" r="4" class="supply-marker supply-marker-home" /><circle data-supply="MUN" cx="264.50" cy="370.12" r="4" class="supply-marker supply-marker-home" /><circle data-supply="NAP" cx="318.22" cy="521.80" r="4" class="supply-marker supply-marker-home" /><circle data-supply="NWY" cx="282.39" cy="190.06" r="4" class="supply-marker" /><circle data-supply="PAR" cx="175.87" cy="379.17" r="4" class="supply-marker supply-marker-home" /><circle data-supply="POR" cx="34.90" cy="464.44" r="4" class="supply-marker" /><circle data-supply="ROM" cx="285.91" cy="483.03" r="4" class="supply-marker supply-marker-home" /><circle data-supply="RUM" cx="417.67" cy="434.84" r="4" class="supply-marker" /><circle data-supply="SER" cx="373.56" cy="469.83" r="4" class="supply-marker" /><circle data-supply="SEV" cx="589.26" cy="366.71" r="4" class="supply-marker supply-marker-home" /><circle data-supply="SMY" cx="505.09" cy="529.87" r="4" class="supply-marker supply-marker-home" /><circle data-supply="SPA" cx="90.00" cy="476.97" r="4" class="supply-marker" /><circle data-supply="STP" cx="529.81" cy="123.24" r="4" class="supply-marker supply-marker-home" /><circle data-supply="SWE" cx="333.03" cy="181.97" r="4" class="supply-marker" /><circle data-supply="TRI" cx="325.76" cy="442.50" r="4" class="supply-marker supply-marker-home" /><circle data-supply="TUN" cx="228.48" cy="580.23" r="4" class="supply-marker" /><circle data-supply="VEN" cx="277.26" cy="445.13" r="4" class="supply-marker supply-marker-home" /><circle data-supply="VIE" cx="328.44" cy="389.32" r="4" class="supply-marker supply-marker-home" /><circle data-supply="WAR" cx="374.44" cy="334.82" r="4" class="supply-marker supply-marker-home" /></g><g id="unit-anchors-army" class="map-overlay" display="none" aria-hidden="true"><circle data-anchor="ADR" cx="317.25" cy="467.55" r="1" /><circle data-anchor="ALB" cx="358.18" cy="494.13" r="1" /><circle data-anchor="ANK" cx="530.36" cy="484.78" r="1" /><circle data-anchor="APU" cx="312.68" cy="485.82" r="1" /><circle data-anchor="ARM" cx="613.88" cy="481.87" r="1" /><circle data-anchor="BEL" cx="202.59" cy="329.32" r="1" /><circle data-anchor="BER" cx="295.04" cy="302.61" r="1" /><circle data-anchor="BOH" cx="311.88" cy="359.57" r="1" /><circle data-anchor="BRE" cx="140.18" cy="348.21" r="1" /><circle data-anchor="BUD" cx="377.37" cy="403.40" r="1" /><circle data-anchor="BUL" cx="421.70" cy="467.45" r="1" /><circle data-anchor="BUR" cx="200.42" cy="382.37" r="1" /><circle data-anchor="CLY" cx="156.09" cy="205.12" r="1" /><circle data-anchor="CON" cx="466.85" cy="503.49" r="1" /><circle data-anchor="DEN" cx="272.94" cy="245.83" r="1" /><circle data-anchor="EDI" cx="166.57" cy="219.38" r="1" /><circle data-anchor="FIN" cx="402.57" cy="164.59" r="1" /><circle data-anchor="GAL" cx="380.07" cy="356.91" r="1" /><circle data-anchor="GAS" cx="150.31" cy="412.99" r="1" /><circle data-anchor="GRE" cx="384.34" cy="523.60" r="1" /><circle data-anchor="HOL" cx="221.39" cy="307.91" r="1" /><circle data-anchor="KIE" cx="258.77" cy="310.50" r="1" /><circle data-anchor="LON" cx="164.92" cy="290.81" r="1" /><circle data-anchor="LVN" cx="400.58" cy="257.40" r="1" /><circle data-anchor="LVP" cx="147.06" cy="242.97" r="1" /><circle data-anchor="MAR" cx="186.17" cy="423.29" r="1" /><circle data-anchor="MOS" cx="548.31" cy="252.69" r="1" /><circle data-anchor="MUN" cx="264.50" cy="360.12" r="1" /><circle data-anchor="NAF" cx="107.10" cy="569.28" r="1" /><circle data-anchor="NAP" cx="318.22" cy="511.80" r="1" /><circle data-anchor="NWY" cx="282.39" cy="180.06" r="1" /><circle data-anchor="PAR" cx="175.87" cy="369.17" r="1" /><circle data-anchor="PIC" cx="198.33" cy="345.21" r="1" /><circle data-anchor="PIE" cx="233.51" cy="423.79" r="1" /><circle data-anchor="POR" cx="49.90" cy="447.44" r="1" /><circle data-anchor="PRU" cx="344.52" cy="297.51" r="1" /><circle data-anchor="ROM" cx="278.91" cy="475.03" r="1" /><circle data-anchor="RUH" cx="235.37" cy="343.58" r="1" /><circle data-anchor="RUM" cx="427.67" cy="424.84" r="1" /><circle data-anchor="SER" cx="373.56" cy="459.83" r="1" /><circle data-anchor="SEV" cx="589.26" cy="376.71" r="1" /><circle data-anchor="SIL" cx="322.52" cy="334.30" r="1" /><circle data-anchor="SMY" cx="505.09" cy="539.87" r="1" /><circle data-anchor="SPA" cx="90.00" cy="466.97" r="1" /><circle data-anchor="STP" cx="529.81" cy="113.24" r="1" /><circle data-anchor="SWE" cx="333.03" cy="171.97" r="1" /><circle data-anchor="SWI" cx="230.51" cy="397.41" r="1" /><circle data-anchor="SYR" cx="601.22" cy="554.21" r="1" /><circle data-anchor="TRI" cx="325.76" cy="432.50" r="1" /><circle data-anchor="TUN" cx="228.48" cy="570.23" r="1" /><circle data-anchor="TUS" cx="254.25" cy="450.39" r="1" /><circle data-anchor="TYR" cx="280.21" cy="395.72" r="1" /><circle data-anchor="UKR" cx="450.19" cy="345.36" r="1" /><circle data-anchor="VEN" cx="277.26" cy="435.13" r="1" /><circle data-anchor="VIE" cx="328.44" cy="379.32" r="1" /><circle data-anchor="WAL" cx="138.15" cy="291.01" r="1" /><circle data-anchor="WAR" cx="374.44" cy="324.82" r="1" /><circle data-anchor="YOR" cx="169.20" cy="269.38" r="1" /></g><g id="unit-anchors-fleet" class="map-overlay" display="none" aria-hidden="true"><circle data-anchor="ADR" cx="317.25" cy="467.55" r="1" /><circle data-anchor="AEG" cx="418.04" cy="542.15" r="1" /><circle data-anchor="ALB" cx="358.18" cy="494.13" r="1" /><circle data-anchor="ANK" cx="517.36" cy="468.78" r="1" /><circle data-anchor="APU" cx="312.68" cy="485.82" r="1" /><circle data-anchor="ARM" cx="603.88" cy="461.87" r="1" /><circle data-anchor="BAL" cx="336.63" cy="264.56" r="1" /><circle data-anchor="BAR" cx="475.91" cy="35.03" r="1" /><circle data-anchor="BEL" cx="196.59" cy="323.32" r="1" /><circle data-anchor="BER" cx="295.04" cy="293.61" r="1" /><circle data-anchor="BLA" cx="515.80" cy="436.43" r="1" /><circle data-anchor="BOT" cx="368.48" cy="209.58" r="1" /><circle data-anchor="BRE" cx="126.18" cy="343.21" r="1" /><circle data-anchor="BUL" data-fleet-coast="EC" cx="447.70" cy="459.45" r="1" /><circle data-anchor="BUL" data-fleet-coast="SC" cx="416.70" cy="487.45" r="1" /><circle data-anchor="CLY" cx="156.09" cy="205.12" r="1" /><circle data-anchor="CON" cx="466.85" cy="503.49" r="1" /><circle data-anchor="DEN" cx="272.94" cy="253.83" r="1" /><circle data-anchor="EAS" cx="497.75" cy="575.90" r="1" /><circle data-anchor="EDI" cx="166.57" cy="219.38" r="1" /><circle data-anchor="ENG" cx="141.33" cy="321.72" r="1" /><circle data-anchor="FIN" cx="388.57" cy="184.59" r="1" /><circle data-anchor="GAS" cx="144.31" cy="409.99" r="1" /><circle data-anchor="GRE" cx="384.34" cy="523.60" r="1" /><circle data-anchor="HEL" cx="240.79" cy="266.73" r="1" /><circle data-anchor="HOL" cx="221.39" cy="298.91" r="1" /><circle data-anchor="ION" cx="328.16" cy="564.90" r="1" /><circle data-anchor="IRI" cx="108.24" cy="285.42" r="1" /><circle data-anchor="KIE" cx="258.77" cy="291.50" r="1" /><circle data-anchor="LON" cx="164.92" cy="290.81" r="1" /><circle data-anchor="LVN" cx="380.58" cy="240.40" r="1" /><circle data-anchor="LVP" cx="147.06" cy="242.97" r="1" /><circle data-anchor="LYO" cx="192.27" cy="472.04" r="1" /><circle data-anchor="MAO" cx="50.20" cy="390.13" r="1" /><circle data-anchor="MAR" cx="186.17" cy="423.29" r="1" /><circle data-anchor="NAF" cx="107.10" cy="554.28" r="1" /><circle data-anchor="NAO" cx="75.27" cy="137.88" r="1" /><circle data-anchor="NAP" cx="309.22" cy="532.80" r="1" /><circle data-anchor="NTH" cx="212.25" cy="238.35" r="1" /><circle data-anchor="NWG" cx="248.64" cy="78.75" r="1" /><circle data-anchor="NWY" cx="262.39" cy="180.06" r="1" /><circle data-anchor="PIC" cx="172.33" cy="340.21" r="1" /><circle data-anchor="PIE" cx="225.51" cy="431.79" r="1" /><circle data-anchor="POR" cx="24.90" cy="477.44" r="1" /><circle data-anchor="PRU" cx="344.52" cy="297.51" r="1" /><circle data-anchor="ROM" cx="278.91" cy="475.03" r="1" /><circle data-anchor="RUM" cx="447.67" cy="433.84" r="1" /><circle data-anchor="SEV" cx="560.26" cy="407.71" r="1" /><circle data-anchor="SKA" cx="280.54" cy="228.90" r="1" /><circle data-anchor="SMY" cx="466.09" cy="544.87" r="1" /><circle data-anchor="SPA" data-fleet-coast="NC" cx="87.00" cy="505.97" r="1" /><circle data-anchor="SPA" data-fleet-coast="SC" cx="90.00" cy="426.97" r="1" /><circle data-anchor="STP" data-fleet-coast="NC" cx="453.81" cy="71.24" r="1" /><circle data-anchor="STP" data-fleet-coast="SC" cx="435.81" cy="213.24" r="1" /><circle data-anchor="SWE" cx="333.03" cy="171.97" r="1" /><circle data-anchor="SWI" cx="230.51" cy="397.41" r="1" /><circle data-anchor="SYR" cx="567.22" cy="567.21" r="1" /><circle data-anchor="TRI" cx="325.76" cy="432.50" r="1" /><circle data-anchor="TUN" cx="235.48" cy="558.23" r="1" /><circle data-anchor="TUS" cx="254.25" cy="450.39" r="1" /><circle data-anchor="TYS" cx="263.05" cy="510.82" r="1" /><circle data-anchor="VEN" cx="277.26" cy="435.13" r="1" /><circle data-anchor="WAL" cx="138.15" cy="291.01" r="1" /><circle data-anchor="WES" cx="151.40" cy="522.09" r="1" /><circle data-anchor="YOR" cx="169.20" cy="269.38" r="1" /></g></svg>