<?xml version="1.0" encoding="UTF-8"?>
<!--
  概要: ディプロマシー地図の陸軍ユニット表示用アイコン（戦車）。
  参照: MapView.tsx の UNIT_ARMY_ICON_URL
-->
<svg id="_x32_" xmlns="http://www.w3.org/2000/svg" version="1.1" viewBox="0 0 512 512">
  <!-- Generator: Adobe Illustrator 30.3.0, SVG Export Plug-In . SVG Version: 2.1.3 Build 182)  -->
  <defs>
    <style>
      .st0 {
        fill: #fff;
      }
    </style>
  </defs>
  <g>
    <path d="M353.47,303.15H125.79c-15.78,0-28.61,12.84-28.61,28.61s18.22,27.41,25.44,32.91l6.68,4.78c9.38,6.68,20.74,10.01,32.25,10.01h156.19c11.51,0,22.86-3.34,32.24-10.01l6.69-4.78c7.2-5.5,25.44-17.12,25.44-32.91s-12.84-28.61-28.62-28.61ZM127.07,348.3c-8.79,0-15.9-7.11-15.9-15.9s7.11-15.9,15.9-15.9,15.9,7.12,15.9,15.9-7.11,15.9-15.9,15.9ZM180.48,366.49c-13.9,0-25.18-11.26-25.18-25.18s11.28-25.19,25.18-25.19,25.19,11.27,25.19,25.19-11.27,25.18-25.19,25.18ZM239.95,366.49c-13.91,0-25.19-11.26-25.19-25.18s11.27-25.19,25.19-25.19,25.18,11.27,25.18,25.19-11.28,25.18-25.18,25.18ZM299.42,366.49c-13.91,0-25.19-11.26-25.19-25.18s11.27-25.19,25.19-25.19,25.18,11.27,25.18,25.19-11.28,25.18-25.18,25.18ZM352.2,348.3c-8.79,0-15.91-7.11-15.91-15.9s7.13-15.9,15.91-15.9,15.89,7.12,15.89,15.9-7.11,15.9-15.89,15.9Z"/>
    <path d="M256.5,1.66C115.6,1.66,1.38,115.88,1.38,256.78s114.22,255.12,255.12,255.12,255.12-114.22,255.12-255.12S397.4,1.66,256.5,1.66ZM304.83,147.12h100.24v23.1h-100.24v-23.1ZM275.88,136.14h14.78c2.99,0,5.4,2.41,5.4,5.4v34.28c0,2.99-2.41,5.4-5.4,5.4h-14.78v-45.08ZM130.58,187.15c0-39.81,32.29-72.1,72.11-72.1h54.09c5.98,0,10.81,4.84,10.81,10.81v74.6h-137.01v-13.31ZM398.3,341.62c-.81,3.1-1.98,5.99-3.34,8.66-2.75,5.32-6.3,9.76-9.92,13.52-2.42,2.51-4.87,4.74-7.22,6.68-3.12,2.61-6.04,4.75-8.26,6.39-.9.66-1.69,1.25-2.28,1.7l-.08.05-.08.06-.22.16-6.79,4.84c-6.11,4.36-12.86,7.69-20.01,9.91s-14.69,3.35-22.38,3.35h-156.19c-7.69,0-15.24-1.13-22.38-3.35-7.15-2.22-13.9-5.55-20.02-9.9h0s-6.78-4.84-6.78-4.84l-.08-.06-.22-.16-.08-.06c-.6-.45-1.37-1.04-2.29-1.7-1.46-1.08-3.22-2.36-5.14-3.86-1.91-1.5-3.99-3.2-6.1-5.1-4.21-3.81-8.63-8.44-12.21-14.21-2.39-3.84-4.4-8.21-5.55-13.12-.65-2.79-1.02-5.75-1.02-8.81,0-4.75.74-9.36,2.09-13.69,1.35-4.35,3.33-8.41,5.81-12.09,4.98-7.34,11.99-13.17,20.28-16.69,5.51-2.35,11.6-3.64,17.94-3.64h227.68c4.75,0,9.38.72,13.7,2.08,4.34,1.36,8.41,3.33,12.08,5.81,7.36,4.97,13.2,11.99,16.7,20.27,2.35,5.52,3.64,11.61,3.64,17.94,0,3.45-.45,6.76-1.28,9.86ZM444.52,308.1c-.46,2.41-1.89,4.53-3.95,5.85l-9.94,6.42c-4.06,2.62-9.49,1.58-12.28-2.38l-14.18-20.18c-10.22-15.12-27.54-25.08-47.14-25.08H125.39c-23.26,0-43.3,14.04-52.09,34.1l-1.34,5.66c-1.09,4.59-5.52,7.56-10.18,6.84l-2.98-.48c-2.4-.38-4.55-1.7-5.95-3.68-1.4-1.97-1.96-4.44-1.52-6.82l10.65-51.35c4.65-25.75,27.06-44.48,53.21-44.48h232.04c17.6,0,34.11,8.58,44.24,22.98l51.56,65.66c1.41,2.01,1.95,4.5,1.48,6.91ZM459.12,175.01c-1.08,1.02-2.53,1.56-4.01,1.48l-40.85-2.18v-31.29l40.85-2.16c1.49-.08,2.94.45,4.01,1.49,1.07,1.01,1.69,2.44,1.69,3.92v24.81c0,1.49-.61,2.9-1.69,3.92Z"/>
  </g>
  <path class="st0" d="M256,11.97c32.95,0,64.9,6.45,94.99,19.18,29.06,12.29,55.16,29.89,77.57,52.3,22.41,22.41,40.01,48.51,52.3,77.57,12.72,30.08,19.18,62.04,19.18,94.99s-6.45,64.9-19.18,94.99c-12.29,29.06-29.89,55.16-52.3,77.57-22.41,22.41-48.51,40.01-77.57,52.3-30.08,12.72-62.04,19.18-94.99,19.18s-64.9-6.45-94.99-19.18c-29.06-12.29-55.16-29.89-77.57-52.3-22.41-22.41-40.01-48.51-52.3-77.57-12.72-30.08-19.18-62.04-19.18-94.99s6.45-64.9,19.18-94.99c12.29-29.06,29.89-55.16,52.3-77.57,22.41-22.41,48.51-40.01,77.57-52.3,30.08-12.72,62.04-19.18,94.99-19.18M256,7.97C119.02,7.97,7.97,119.02,7.97,256s111.05,248.03,248.03,248.03,248.03-111.05,248.03-248.03S392.98,7.97,256,7.97h0Z"/>
</svg>