<?xml version="1.0" encoding="UTF-8"?>
<!--
  概要: ディプロマシー地図の海軍ユニット表示用アイコン（碇）。
  参照: MapView.tsx の UNIT_FLEET_ICON_URL
-->
<svg id="_x32_" xmlns="http://www.w3.org/2000/svg" version="1.1" viewBox="0 0 512 512">
  <!-- Generator: Adobe Illustrator 30.3.0, SVG Export Plug-In . SVG Version: 2.1.3 Build 182)  -->
  <path d="M256.01,73.68c-11.91,0-21.61,9.68-21.61,21.6s9.7,21.6,21.61,21.6,21.6-9.69,21.6-21.6-9.69-21.6-21.6-21.6Z"/>
  <g>
    <path d="M481.36,161.79c-12.29-29.06-29.89-55.16-52.3-77.57-22.41-22.41-48.51-40.01-77.57-52.3-30.08-12.72-62.04-19.18-94.99-19.18s-64.9,6.45-94.99,19.18c-29.06,12.29-55.16,29.89-77.57,52.3-22.41,22.41-40.01,48.51-52.3,77.57-12.72,30.08-19.18,62.04-19.18,94.99s6.45,64.9,19.18,94.99c12.29,29.06,29.89,55.16,52.3,77.57,22.41,22.41,48.51,40.01,77.57,52.3,30.08,12.72,62.04,19.18,94.99,19.18s64.9-6.45,94.99-19.18c29.06-12.29,55.16-29.89,77.57-52.3,22.41-22.41,40.01-48.51,52.3-77.57,12.72-30.08,19.18-62.04,19.18-94.99s-6.45-64.9-19.18-94.99ZM436.25,345.85c-8.25-3.25-15.15-9.65-20.4-16-8.57,21.45-44.47,94.77-143.77,124.62-5.19,1.56-11.14,4.45-16.08,6.32-4.95-1.87-10.9-4.76-16.09-6.32-99.3-29.85-135.2-103.17-143.76-124.62-5.26,6.35-12.16,12.75-20.41,16-14.13-32.94-10.04-79,9.89-101.49,19.94,6.68,59.25,40.89,67.64,75.74-7.25,1.98-15.08,1.55-22.18.2,25.84,47.98,68.09,66.71,89.56,73.41,8.26,2.59,1.38.35,1.38.35,2.91.74,6,.09,8.38-1.75,2.38-1.84,3.79-4.66,3.81-7.68v-1.9s1.54-184.19,1.54-184.19h-34.6c-3.28,7.18-10.48,12.18-18.88,12.18-11.48,0-20.76-9.3-20.76-20.78s9.29-20.75,20.76-20.75c8.39,0,15.6,5,18.88,12.18h34.75l.32-39.45v-1.95c.04-3.3-1.61-6.4-4.37-8.24,0,0-1.7-.64-4.39-2.91-9.5-8.1-15.54-20.13-15.54-33.55,0-24.3,19.78-44.08,44.08-44.08s44.06,19.78,44.06,44.07c0,13.43-6.04,25.45-15.54,33.55-2.69,2.28-4.39,2.91-4.39,2.91-2.76,1.84-4.41,4.94-4.39,8.24v1.95s.35,39.45.35,39.45h34.74c3.27-7.18,10.47-12.18,18.89-12.18,11.45,0,20.75,9.3,20.75,20.75s-9.3,20.78-20.75,20.78c-8.41,0-15.62-5-18.89-12.18h-34.6l1.52,184.19.02,1.9c.02,3.01,1.42,5.84,3.8,7.68,2.38,1.84,5.46,2.49,8.38,1.75,0,0-6.89,2.24,1.38-.35,21.48-6.7,63.72-25.44,89.56-73.41-7.1,1.35-14.92,1.78-22.16-.2,8.37-34.85,47.7-69.06,67.64-75.74,19.91,22.49,24,68.55,9.87,101.49Z"/>
    <path d="M256.5,1.66C115.6,1.66,1.38,115.88,1.38,256.78s114.22,255.12,255.12,255.12,255.12-114.22,255.12-255.12S397.4,1.66,256.5,1.66ZM256.5,504.81c-136.98,0-248.03-111.05-248.03-248.03S119.52,8.74,256.5,8.74s248.03,111.05,248.03,248.03-111.05,248.03-248.03,248.03Z"/>
  </g>
</svg>